<svg height="512" width="497" xmlns="http://www.w3.org/2000/svg"><path d="m177.8025818 358.1992798 40.9700012 44.931366c-30.6515198-.4619751-61.4128265 4.5504761-87.3280182 9.7536011 12.6360016-23.8844605 27.0469055-45.3166505 46.358017-54.6849671zm73.1103668 46.4518127-48.1689301-52.6473694c9.5428925-1.2687988 20.2020111-2.0935669 31.8041382-3.4396667 32.4707031 7.3217468 54.0886536 25.0912781 68.926239 49.3883057-16.0529174 3.4026489-33.1889648 6.6969909-52.5614471 6.6987304zm-68.4397888-369.0006103c47.9577484 7.4943428 64.7084198 28.8649521 60.8471069 63.4599152-83.7115936 44.0848693-133.9241562 156.5010986-145.5508804 209.2207488-9.3922958 42.5880432-10.3892822 77.5671692-33.8255272 113.913208-35.5870304.8895264-42.1587982-2.8693542-59.5636592 10.4399415l-4.3801999 21.4629821c15.1587591-13.4169922 19.4604416-7.006012 47.0468903-10.000885-4.5848923 5.0862122-9.6733208 10.2278748-15.4024734 15.4544678-19.7058544 23.8801575 21.5435753 72.5545959 46.2751617 43.3263855 15.7497559-11.8411255 28.0307312-38.095459 41.1973038-65.365387 24.4427032-1.8043823 55.5211639-3.5083618 86.4612274-4.8189392 2.8130646 9.247345 7.4207001 17.8182068 15.2834778 25.162323 3.0071716-8.622345 9.1082001-17.4447327 17.081604-26.3882141 23.5322723-.7821045 45.4912262-1.2590637 62.5605316-1.285614 0 0 16.8624268-29.9776306 82.4385071-29.9776306 65.5762024 0 66.9512024 20.7303772 70.4475403 6.7449341 5.2460022-20.9843445 45.0873718-21.8974915 42.7180786-28.4787903-6.7449341-18.7360535-31.2709656-5.2577209-50.9619446 7.4944458h-35.2237854c-5.808197-24.54422-48.807312 2.7167053-78.2294006 6.3805847-15.713623-17.4511414-30.1180115-35.8239441-53.7345886-52.1022949 49.4009705-14.2451782 166.0229797-104.5899811 114.7268677-224.8266907-15.4231262-36.1512909-36.4666138-86.4099579-57.7070312-101.1746597-49.4037781-34.3415985-101.9207306 3.9974003-101.9207306 3.9974003h-33.0543671c-8.8922121 1.2090568-10.8551027 2.6111164-17.529709 17.3617687z"/></svg>